<svg xmlns="http://www.w3.org/2000/svg" xml:space="preserve" style="enable-background:new 0 0 512 512" viewBox="0 0 512 512"><path d="M460.091 211.694C460.091 98.976 368.716 7.602 256 7.602S51.908 98.976 51.908 211.694c-21.477 0-38.886 17.411-38.886 38.886s17.408 38.886 38.886 38.886l54.443 214.933h311.316l42.423-214.933c21.477 0 38.886-17.411 38.886-38.886s-17.408-38.886-38.885-38.886z" style="fill:#e0a03d"/><path d="M165.152 289.465h294.939l-42.423 214.933H106.351L51.908 289.465h92.971" style="fill:#63a2ae"/><path d="M467.579 204.694C463.87 91.196 370.385 0 255.999 0S48.13 91.196 44.421 204.694c-22.086 3.591-39 22.8-39 45.885 0 23.596 17.67 43.143 40.473 46.1L100.435 512h323.482l42.508-215.362c22.648-3.1 40.155-22.574 40.155-46.059-.001-23.085-16.915-42.293-39.001-45.885zm-7.488 77.169H165.152v15.204h285.69L411.42 496.796h-48.582l23.525-132.022-14.969-2.667-24 134.688h-83.793V322.897h-15.204v173.898h-83.793l-23.999-134.688-14.969 2.667 23.525 132.023h-36.894l-50.591-199.73h83.202v-15.204H51.909c-17.25 0-31.284-14.034-31.284-31.284s14.034-31.284 31.284-31.284h163.084v-15.204H59.671C63.682 99.258 150.203 15.204 255.999 15.204s192.318 84.054 196.328 188.888H393.16v15.204h66.931c17.25 0 31.284 14.034 31.284 31.284 0 17.249-14.034 31.283-31.284 31.283z" style="fill:#491e17"/><path d="M435.026 183.056c-6.709-42.092-28.315-80.704-60.839-108.726C341.311 46.007 299.338 30.408 256 30.408v15.204c39.697 0 78.145 14.291 108.263 40.237 29.806 25.679 49.604 61.051 55.748 99.601l15.015-2.394z" style="fill:#491e17"/></svg>